<svg version="1.1" id="Layer_1" xmlns="http://www.w3.org/2000/svg" xmlns:xlink="http://www.w3.org/1999/xlink" x="0px" y="0px"
	 width="100%" viewBox="0 0 1024 1024" enable-background="new 0 0 1024 1024" xml:space="preserve">
<path fill="#000000" opacity="1.000000" stroke="none" 
	d="
M681.000000,1025.000000 
	C454.000000,1025.000000 227.500000,1025.000000 1.000000,1025.000000 
	C1.000000,683.666687 1.000000,342.333344 1.000000,1.000000 
	C342.333344,1.000000 683.666687,1.000000 1025.000000,1.000000 
	C1025.000000,342.333344 1025.000000,683.666687 1025.000000,1025.000000 
	C910.500000,1025.000000 796.000000,1025.000000 681.000000,1025.000000 
M537.363708,217.932098 
	C536.940247,217.595825 536.516785,217.259552 536.019836,216.208405 
	C534.847046,214.727631 533.674194,213.246872 532.554260,211.832825 
	C526.735596,214.625366 525.459045,216.720932 527.957153,219.402069 
	C529.361328,220.909088 531.294434,221.923340 532.997620,223.957306 
	C533.489136,225.620377 533.874512,227.323929 534.490479,228.939575 
	C537.317505,236.355087 536.252930,238.824692 529.071838,238.983398 
	C517.121216,239.773438 505.212646,238.217514 493.127960,240.618698 
	C482.226685,242.784775 471.590393,245.331543 461.098969,248.903671 
	C440.521606,255.909851 423.204071,268.076569 407.783997,282.946167 
	C401.203613,289.291656 395.941376,297.003998 389.760071,304.710846 
	C389.376465,305.410889 389.072571,306.170868 388.597534,306.802124 
	C377.805542,321.142639 371.146027,337.550964 367.325592,354.750732 
	C364.109711,369.228607 363.340302,384.101227 364.660736,399.230347 
	C366.240753,417.334198 371.095795,434.258392 378.852814,450.334564 
	C388.327423,469.970490 399.139221,488.892761 414.325439,504.895111 
	C425.559387,516.732788 436.311401,529.070129 448.088593,540.337769 
	C459.552246,551.305420 471.896545,561.377747 484.148193,571.486816 
	C490.890320,577.049866 498.130341,582.035950 505.347168,586.988831 
	C510.991547,590.862549 517.153381,590.321106 522.531677,586.686035 
	C528.018982,582.977234 532.904419,578.378052 538.706360,573.907959 
	C539.532532,573.413635 540.434570,573.012329 541.173218,572.410583 
	C548.598572,566.361206 556.135864,560.438477 563.358093,554.154236 
	C568.863220,549.364075 573.959167,544.103699 579.903931,538.974365 
	C589.628357,528.810486 599.488831,518.772583 609.045166,508.453064 
	C623.056946,493.322357 633.983582,475.945770 643.524231,457.832733 
	C656.227234,433.716125 663.667786,408.075989 662.026550,380.411499 
	C661.955811,379.219299 661.374817,378.057343 660.954590,375.974091 
	C661.389648,363.497589 657.882874,351.745667 654.503418,339.940552 
	C653.318604,335.801910 652.836853,331.462036 652.908752,327.080780 
	C660.543762,327.033691 661.354919,326.093994 659.000305,319.045074 
	C658.244507,307.812012 653.660095,297.827820 648.990479,287.126129 
	C649.006226,285.787323 649.021973,284.448517 649.742371,282.760345 
	C650.600342,280.848206 651.128906,278.672333 652.397034,277.088593 
	C654.102539,274.958527 656.378662,273.285339 658.409851,271.416046 
	C658.097473,271.026398 657.785034,270.636749 657.472595,270.247101 
	C662.302979,269.914246 662.302979,269.914246 662.719238,265.947296 
	C660.919983,265.947296 659.152161,265.947296 657.053101,265.947296 
	C657.230469,262.158447 657.417603,258.469757 652.174194,258.875946 
	C651.833435,258.902344 651.314270,257.830780 651.033997,257.200653 
	C650.272827,255.488953 649.595459,253.740021 648.830933,251.874207 
	C648.234924,252.355148 647.861511,252.501053 647.785645,252.741028 
	C646.673950,256.256470 647.570312,261.485474 641.100708,260.395691 
	C640.823792,260.349091 640.010437,261.403778 640.049072,261.898468 
	C640.352722,265.790375 638.062500,266.151703 635.000183,266.094421 
	C633.743042,266.070953 632.467651,267.021484 631.387817,267.453949 
	C625.671143,261.290802 620.680542,254.302536 614.162109,249.308685 
	C606.781799,243.654617 600.812012,236.324890 591.643738,232.464966 
	C586.253418,230.195572 581.059692,228.092743 575.356445,226.953568 
	C569.212341,225.726364 563.123108,224.224640 556.629639,222.139954 
	C550.298340,220.969818 543.967102,219.799698 537.518005,218.557495 
	C537.518005,218.557495 537.407776,218.474365 537.363708,217.932098 
M371.199768,551.769897 
	C379.556915,554.075317 387.813019,556.892822 396.294922,558.565857 
	C408.931549,561.058350 421.623322,560.687195 434.857819,556.887512 
	C437.308014,556.320618 439.758209,555.753662 442.208435,555.186768 
	C442.147888,554.388672 442.087341,553.590515 442.026794,552.792419 
	C439.698883,552.586670 437.370972,552.380920 434.130615,552.040344 
	C425.298950,551.295959 416.406921,550.968140 407.651428,549.698547 
	C397.435822,548.217163 387.339508,545.913086 376.782776,543.261047 
	C372.298004,542.075623 367.808167,540.909058 363.329712,539.700378 
	C356.485901,537.853394 349.649933,535.977356 342.810638,534.113708 
	C342.580780,534.772400 342.350952,535.431030 342.121094,536.089722 
	C351.082092,542.233337 360.036194,548.389526 371.199768,551.769897 
M598.740601,584.986511 
	C611.605774,586.973572 624.304504,586.029541 637.680359,583.594971 
	C634.894897,581.132385 632.938293,579.402588 630.981689,577.672791 
	C631.202576,577.192993 631.423462,576.713257 631.644348,576.233521 
	C648.305420,575.078979 664.966553,573.924438 681.627625,572.769897 
	C681.684265,572.178894 681.740906,571.587891 681.797546,570.996948 
	C680.210388,570.319824 678.660583,569.172302 677.029907,569.042542 
	C667.040955,568.247803 657.041870,567.384460 647.030640,567.108276 
	C629.067261,566.612732 611.092834,566.516235 592.169128,566.103394 
	C583.188354,566.068481 574.188293,565.685242 565.236877,566.180359 
	C561.936279,566.362976 558.533752,568.254822 555.573303,570.027649 
	C552.667908,571.767517 553.603882,574.276794 556.491577,574.689209 
	C560.898743,575.318726 565.497803,574.840942 567.766418,579.932617 
	C567.966370,580.381348 568.840332,580.688354 569.442505,580.775513 
	C578.913147,582.146240 588.390503,583.470093 598.740601,584.986511 
M436.837158,583.930664 
	C437.803284,583.832275 438.817230,583.890137 439.728088,583.611206 
	C448.595032,580.896484 457.440613,578.111938 466.305664,575.391052 
	C467.223419,575.109314 468.342865,575.338318 469.163879,574.924255 
	C470.224609,574.389160 471.796875,573.492310 471.851013,572.666199 
	C471.928467,571.484497 471.125153,569.522461 470.181641,569.127930 
	C466.981476,567.789185 463.569275,566.189209 460.211121,566.126282 
	C443.767731,565.817932 427.315552,565.956055 410.866730,566.010498 
	C409.870667,566.013794 408.876709,566.656006 406.959320,567.012329 
	C385.560028,566.973083 364.146545,566.714722 342.964844,570.887573 
	C361.554199,577.115662 381.080414,573.282043 401.019653,576.640869 
	C397.785889,579.422546 395.400635,581.474304 392.156250,584.265076 
	C396.333191,584.969666 399.468262,585.966492 402.594543,585.939758 
	C412.686401,585.853210 422.776367,585.423706 432.862915,585.022339 
	C433.919861,584.980286 434.949310,584.247070 436.837158,583.930664 
M479.808228,619.019714 
	C483.223267,619.378784 486.643005,620.084595 490.052521,620.038025 
	C506.462860,619.813721 522.875061,619.526001 539.277649,618.987915 
	C552.787048,618.544800 566.303223,617.980896 579.781067,616.990173 
	C593.328491,615.994324 606.844788,614.515808 620.346375,612.996704 
	C623.659058,612.624023 626.861267,611.269165 630.114258,610.365845 
	C630.027405,609.866272 629.940552,609.366760 629.853699,608.867188 
	C627.528198,609.075378 625.203186,609.289001 622.877075,609.489929 
	C621.081055,609.645081 619.255615,610.058899 617.492188,609.878784 
	C612.305481,609.349365 607.160828,608.227112 601.968201,607.968079 
	C579.071411,606.825562 556.169434,605.723022 533.257202,604.982178 
	C522.143127,604.622803 511.002228,605.091492 498.966461,605.071899 
	C493.542725,605.402527 488.123230,605.857666 482.694519,606.041809 
	C462.172272,606.738037 441.648102,607.385254 421.122192,607.963196 
	C415.127594,608.132019 409.120605,607.873535 403.127014,608.060059 
	C397.215942,608.244019 391.314667,608.743469 385.409088,609.104492 
	C416.286133,616.042908 447.413361,619.522522 479.808228,619.019714 
M306.500000,755.001221 
	C327.327545,755.001038 348.155121,755.011047 368.982666,754.994080 
	C374.555450,754.989502 376.962524,752.434082 377.001221,746.614258 
	C377.038330,741.033081 375.006409,739.002319 369.345856,739.001160 
	C348.018433,738.996704 326.690857,738.966370 305.363708,739.039490 
	C302.628510,739.048889 299.895233,739.609924 296.010071,740.044006 
	C300.922852,734.168640 304.991730,729.326294 309.034698,724.462402 
	C317.276062,714.547607 325.525299,704.639160 333.730774,694.694763 
	C342.859894,683.630920 351.942535,672.528809 361.048187,661.445679 
	C365.703461,655.779358 370.592377,650.285950 374.941284,644.393799 
	C377.727509,640.618896 376.218231,632.934448 370.160095,632.953247 
	C338.335846,633.051819 306.511169,633.007568 274.686615,632.987793 
	C271.312714,632.985718 269.888245,634.664917 269.992004,637.913757 
	C270.034546,639.245300 270.104309,640.589355 269.979980,641.910645 
	C269.558411,646.389709 271.467560,648.122314 276.012146,648.066223 
	C290.339355,647.889160 304.670105,648.001099 318.999481,648.001221 
	C327.636963,648.001221 336.274475,648.001221 345.156097,648.001221 
	C340.583649,653.353760 335.939606,658.599243 331.506927,664.017639 
	C321.505432,676.243164 311.664398,688.599976 301.654022,700.818115 
	C290.490753,714.443420 279.347504,728.090332 267.890167,741.466187 
	C264.964569,744.881653 265.354248,748.718262 266.600677,751.559143 
	C267.448303,753.491150 271.720123,754.748413 274.514099,754.850830 
	C284.830688,755.228882 295.169525,755.001221 306.500000,755.001221 
M462.589447,684.069214 
	C458.380402,680.044373 454.696350,675.176697 449.857697,672.162537 
	C438.235962,664.922974 425.296204,663.434937 411.897797,666.006897 
	C399.775726,668.333740 389.885284,674.164124 382.874329,684.541138 
	C375.482880,695.481445 373.740051,707.601257 376.168762,720.228027 
	C378.623077,732.987976 385.263519,743.002441 396.953430,749.597839 
	C407.986816,755.822815 419.868469,756.907837 431.925415,755.813660 
	C442.069000,754.893127 451.788239,751.606567 459.777618,744.906372 
	C462.072357,742.981812 465.289673,738.638367 464.577087,737.362305 
	C462.979095,734.500671 459.395599,731.692322 456.208618,731.107605 
	C453.663147,730.640686 450.357147,733.243774 447.651855,734.911194 
	C436.491028,741.790039 424.804199,743.990967 412.382996,738.949524 
	C404.940826,735.929016 396.455414,725.365234 398.608154,715.000854 
	C419.683289,715.000854 440.807312,715.007324 461.931335,714.995850 
	C466.659027,714.993286 469.025879,712.981384 468.939972,708.309509 
	C468.787659,700.026001 467.315338,691.991028 462.589447,684.069214 
M738.968018,673.449219 
	C725.338196,664.756653 710.567566,663.307922 695.036194,666.437622 
	C680.215759,669.424011 669.337097,677.610352 663.315552,691.452332 
	C658.976013,701.427795 658.404846,711.824219 660.847534,722.680420 
	C663.883789,736.174622 672.085083,745.007019 683.852661,750.953613 
	C695.652039,756.916382 708.289124,757.293030 721.029419,754.963684 
	C737.370850,751.975891 748.853943,742.614624 754.901001,727.201355 
	C757.805542,719.798096 758.276062,712.045654 757.231384,703.851929 
	C755.595947,691.026062 749.724304,681.370544 738.968018,673.449219 
M566.975708,677.707031 
	C562.808533,670.848633 556.180481,668.117432 548.756042,666.252258 
	C539.382629,663.897583 530.160645,664.482056 521.604004,668.347717 
	C515.245544,671.220154 509.682373,675.852966 504.001190,679.548035 
	C504.001190,678.207825 503.957733,675.920959 504.010345,673.636230 
	C504.113586,669.156189 501.996735,666.933655 497.481293,666.991150 
	C494.316040,667.031433 491.147827,667.069641 487.984558,666.980469 
	C484.383484,666.878967 482.969604,668.618958 482.975494,672.115173 
	C483.018860,697.774597 482.975708,723.434204 483.022797,749.093628 
	C483.030182,753.122925 486.440186,755.667969 490.261108,755.013062 
	C492.033081,754.709351 493.957001,754.620789 495.704987,754.970154 
	C501.765381,756.181335 505.000031,753.691772 505.000427,747.549500 
	C505.001343,733.720032 505.273834,719.883240 504.905792,706.063599 
	C504.657257,696.730713 508.457764,689.708618 516.258850,685.491638 
	C524.472412,681.051758 533.346252,678.356934 542.437256,683.915161 
	C550.182068,688.650452 550.902710,696.389343 550.962219,704.258179 
	C551.084351,720.409729 550.998840,736.562927 550.998840,752.970337 
	C553.083679,753.523376 554.983459,754.262146 556.942871,754.491211 
	C559.775330,754.822449 562.689697,754.533569 565.498840,754.965759 
	C569.287842,755.548767 571.987427,753.430176 571.991821,749.318298 
	C572.011597,730.823425 572.354126,712.317505 571.773804,693.840881 
	C571.611450,688.670959 568.696716,683.587463 566.975708,677.707031 
M593.998779,696.500000 
	C593.998779,710.982727 594.042236,725.465698 593.987366,739.948181 
	C593.924988,756.398010 592.829468,755.047607 609.244629,754.994080 
	C613.974976,754.978699 615.986938,752.926880 615.994141,748.113220 
	C616.014526,734.462830 616.007263,720.812439 615.999146,707.162048 
	C615.993286,697.364075 622.413513,689.062866 630.673584,687.117126 
	C636.150452,685.826965 641.921326,684.978088 647.509521,685.202637 
	C652.683716,685.410522 655.012329,683.209717 656.588684,678.956665 
	C659.588135,670.863953 658.434082,668.815430 650.354980,665.924194 
	C643.899109,663.613831 637.849609,665.654236 632.700623,668.394592 
	C626.192139,671.858459 620.685364,677.204529 615.001160,681.544312 
	C615.001160,679.566467 614.944397,676.629639 615.014404,673.695862 
	C615.120850,669.240906 613.087646,666.949158 608.551880,666.993530 
	C605.555786,667.022827 602.552673,667.123108 599.564270,666.968811 
	C595.544250,666.761047 593.875977,668.486877 593.955322,672.528259 
	C594.105591,680.182861 593.998779,687.842468 593.998779,696.500000 
M650.598267,553.108826 
	C661.859863,548.751282 673.096985,544.350708 681.980286,535.575378 
	C679.794861,535.072144 677.834961,535.082092 676.005798,535.576172 
	C663.910400,538.842957 651.924866,542.558899 639.741089,545.442444 
	C629.803162,547.794434 619.686646,549.547302 609.559937,550.893799 
	C602.223755,551.869324 594.734924,551.657410 587.331360,552.207031 
	C586.233337,552.288513 585.230286,553.649414 583.933655,554.601746 
	C606.565552,562.383972 628.280151,560.194031 650.598267,553.108826 
M465.775330,208.795349 
	C465.741364,207.946472 465.911469,206.431870 465.642548,206.349426 
	C462.091797,205.260971 457.964020,205.169891 456.846924,200.418915 
	C456.792694,200.188248 455.972046,200.066498 455.495667,200.017853 
	C452.247467,199.686157 451.686920,197.616959 451.959442,194.836258 
	C452.115509,193.243744 451.987671,191.623413 451.987671,189.882568 
	C450.817810,190.034760 449.626465,190.069168 449.614014,190.208801 
	C449.176086,195.114716 447.539490,198.661316 443.067444,201.922821 
	C440.582336,203.735275 438.847931,205.878479 435.505463,206.063614 
	C434.540649,206.117035 433.629944,207.147308 431.614563,208.402008 
	C436.903412,209.726486 442.973083,206.712189 442.187531,214.409012 
	C442.152618,214.750931 443.402802,215.518311 444.105927,215.591324 
	C447.518066,215.945648 448.364868,217.856857 448.096161,221.011414 
	C448.018982,221.917267 449.297241,222.938583 449.954010,223.906937 
	C450.629517,223.107132 451.905457,222.285156 451.876892,221.511353 
	C451.751648,218.118546 453.091217,216.115982 456.365784,215.132233 
	C457.240875,214.869354 458.404266,213.753235 458.479004,212.940857 
	C458.886658,208.509308 461.976532,208.901093 465.775330,208.795349 
M379.728363,254.121780 
	C377.812195,252.292786 377.674622,253.173706 376.775848,255.285324 
	C375.034973,259.375153 373.450012,264.160980 367.496429,264.213318 
	C366.933472,264.218262 366.382324,265.560333 365.722198,266.415771 
	C373.628357,267.834106 376.171021,273.581268 377.336517,280.538666 
	C377.910217,280.442566 378.483887,280.346466 379.057587,280.250397 
	C379.522675,277.913666 379.987762,275.576935 380.466583,273.171234 
	C380.644989,273.117035 380.952179,273.010651 381.266022,272.930359 
	C384.792847,272.028107 385.461060,266.524353 390.112640,267.435364 
	C390.108765,266.472504 390.104889,265.509674 390.101013,264.546814 
	C385.980621,265.165039 385.174286,260.578552 382.611359,259.620605 
	C379.610504,258.498962 380.016754,256.926605 379.728363,254.121780 
M560.021912,202.915649 
	C563.512512,199.939072 567.003113,196.962494 570.171265,194.260849 
	C567.252136,192.149521 563.816284,189.664429 560.528625,187.286560 
	C559.890320,185.101227 559.248779,182.904800 558.607178,180.708374 
	C558.004395,180.712463 557.401550,180.716568 556.798706,180.720657 
	C557.563293,184.656143 557.403320,188.006454 552.778809,188.707687 
	C552.470459,188.754440 552.351929,189.593140 551.999451,189.891525 
	C550.728333,190.967789 549.408081,191.988052 548.079163,192.993378 
	C547.418945,193.492844 546.699341,193.913834 546.006592,194.370316 
	C546.740234,194.913651 547.507446,195.417511 548.201843,196.007065 
	C551.480347,198.790741 556.403259,199.986145 557.064636,205.322372 
	C557.178589,206.241959 557.898621,207.086411 558.338684,207.965576 
	C558.686279,207.918365 559.033875,207.871170 559.381531,207.823959 
	C559.583984,206.454895 559.786499,205.085846 560.021912,202.915649 
M620.445068,225.850418 
	C620.199219,223.927109 619.953430,222.003799 619.707581,220.080475 
	C616.341919,225.837784 612.585327,231.065826 605.523865,233.296112 
	C614.049072,233.161163 616.116089,238.845154 617.606628,245.088455 
	C621.537720,240.569931 625.362732,236.173294 628.681152,232.359009 
	C627.042725,230.688522 624.904114,228.464981 622.698486,226.309967 
	C622.399719,226.018112 621.765137,226.069931 620.445068,225.850418 
M500.526489,196.021484 
	C497.229889,191.854813 495.260864,196.039948 493.200684,197.447708 
	C490.492310,199.298401 492.441925,201.068863 494.021637,202.623123 
	C495.804443,204.377274 497.908386,206.698532 500.153473,204.148575 
	C501.831451,202.242676 505.355011,199.574448 500.526489,196.021484 
M414.421936,229.986526 
	C409.396973,227.226425 409.324280,232.681519 406.512115,234.144623 
	C408.571289,236.111862 410.209320,237.676773 412.215363,239.593292 
	C413.566803,236.337051 420.333313,235.487076 414.421936,229.986526 
M586.986816,220.381363 
	C585.308960,219.011887 583.631042,217.642426 581.953186,216.272964 
	C581.342163,216.777786 580.731201,217.282608 580.120239,217.787430 
	C581.015564,220.227417 581.910889,222.667404 583.042786,225.752029 
	C584.876709,223.607971 585.931519,222.374771 586.986816,220.381363 
z"/>
<path fill="#E397FF" opacity="1.000000" stroke="none" 
	d="
M532.989197,223.159576 
	C531.294434,221.923340 529.361328,220.909088 527.957153,219.402069 
	C525.459045,216.720932 526.735596,214.625366 532.554260,211.832825 
	C533.674194,213.246872 534.847046,214.727631 536.039307,216.898254 
	C536.508423,217.883514 536.958069,218.178955 537.407776,218.474365 
	C537.407776,218.474365 537.518005,218.557495 537.402039,218.975342 
	C537.476196,219.809814 537.624268,220.564087 537.862671,220.593811 
	C544.239380,221.388885 550.625488,222.109467 557.009949,222.842667 
	C563.123108,224.224640 569.212341,225.726364 575.356445,226.953568 
	C581.059692,228.092743 586.253418,230.195572 591.643738,232.464966 
	C600.812012,236.324890 606.781799,243.654617 614.162109,249.308685 
	C620.680542,254.302536 625.671143,261.290802 631.387817,267.453949 
	C632.467651,267.021484 633.743042,266.070953 635.000183,266.094421 
	C638.062500,266.151703 640.352722,265.790375 640.049072,261.898468 
	C640.010437,261.403778 640.823792,260.349091 641.100708,260.395691 
	C647.570312,261.485474 646.673950,256.256470 647.785645,252.741028 
	C647.861511,252.501053 648.234924,252.355148 648.830933,251.874207 
	C649.595459,253.740021 650.272827,255.488953 651.033997,257.200653 
	C651.314270,257.830780 651.833435,258.902344 652.174194,258.875946 
	C657.417603,258.469757 657.230469,262.158447 657.053101,265.947296 
	C659.152161,265.947296 660.919983,265.947296 662.719238,265.947296 
	C662.302979,269.914246 662.302979,269.914246 657.472595,270.247101 
	C657.785034,270.636749 658.097473,271.026398 658.409851,271.416046 
	C656.378662,273.285339 654.102539,274.958527 652.397034,277.088593 
	C651.128906,278.672333 650.600342,280.848206 649.046753,282.867126 
	C647.886292,282.925690 647.421448,282.877502 646.971313,282.421112 
	C647.524719,278.342407 646.769714,275.545532 642.451050,274.927063 
	C641.869629,274.843811 640.971680,274.125702 640.920105,273.628876 
	C640.410400,268.723877 637.140503,269.952545 632.588989,270.373749 
	C635.196838,273.794189 637.177612,276.392181 639.113770,279.368774 
	C640.408813,280.814148 641.748596,281.881012 643.045532,282.938019 
	C643.002625,282.928192 643.031433,282.845062 642.998108,283.213715 
	C644.925415,285.027710 646.885986,286.473053 648.846619,287.918396 
	C653.660095,297.827820 658.244507,307.812012 659.030640,319.888550 
	C659.181396,323.860840 658.745911,326.022034 654.634460,324.445984 
	C652.608276,323.669281 650.528442,324.063538 652.033997,327.214050 
	C652.836853,331.462036 653.318604,335.801910 654.503418,339.940552 
	C657.882874,351.745667 661.389648,363.497589 660.757812,376.619446 
	C660.211365,377.933838 659.861694,378.602875 659.275635,379.724030 
	C657.494202,376.822052 655.806213,374.368805 654.423157,371.754242 
	C651.948669,367.076569 649.131470,362.969666 643.420776,361.800354 
	C642.406860,361.592773 641.285339,360.240265 640.858887,359.161316 
	C639.772034,356.411804 638.947144,353.544891 638.199829,350.677399 
	C634.596252,336.850525 627.540283,324.813416 618.908997,313.627869 
	C618.179199,312.682098 615.975647,311.827301 615.070801,312.248718 
	C611.622375,313.854614 609.507324,311.606171 606.865662,310.331024 
	C604.471802,309.175476 601.622986,307.835175 599.184265,308.158142 
	C595.324707,308.669250 591.665222,310.421936 588.620728,306.457153 
	C588.438599,306.219940 587.700012,306.375458 587.223755,306.404266 
	C584.347046,306.578400 581.443909,307.107117 578.601318,306.877441 
	C573.918335,306.499084 568.851685,306.553253 564.754700,304.668671 
	C561.737915,303.280945 560.081970,303.193359 557.510376,305.037170 
	C552.373657,301.667053 547.591125,298.351257 542.708618,294.758575 
	C542.059265,294.364685 541.509949,294.247681 540.724487,294.017242 
	C540.288086,293.624268 540.087769,293.344696 539.964417,292.686829 
	C539.416565,288.585083 538.791809,284.861694 538.267395,281.736267 
	C534.409241,280.575928 531.020081,278.925140 527.518005,278.634460 
	C520.149658,278.022766 512.722168,278.120270 505.318115,277.972107 
	C505.199249,277.969727 505.068817,278.544983 504.514709,278.899841 
	C486.771393,281.222107 470.149567,285.450378 455.498108,296.228638 
	C451.496155,299.188110 447.781952,301.973633 443.767822,304.799469 
	C442.974548,305.795746 442.481262,306.751678 442.212006,307.273468 
	C440.327332,306.469879 438.699890,305.775970 437.036133,305.042480 
	C436.999817,305.002899 436.922546,304.932892 436.923401,304.498657 
	C436.027374,298.043610 438.302460,293.720032 443.806488,291.073395 
	C453.980957,286.180908 464.140594,281.257477 474.311035,276.356598 
	C475.778687,275.649353 477.272034,274.995544 478.753510,274.317017 
	C477.600769,273.226715 476.703308,272.838959 476.038788,273.083740 
	C471.675079,274.691071 468.335083,273.865936 465.885101,269.631592 
	C465.493042,268.953918 463.423157,268.565948 462.532959,268.959045 
	C447.552277,275.574097 433.418030,283.505920 421.894257,295.965698 
	C417.202393,301.019958 412.731506,305.828094 408.458710,310.806244 
	C406.074615,313.583832 404.534424,314.401031 400.861176,311.735504 
	C397.333435,309.175507 396.095581,303.052887 390.080200,304.095215 
	C395.941376,297.003998 401.203613,289.291656 407.783997,282.946167 
	C423.204071,268.076569 440.521606,255.909851 461.098969,248.903671 
	C471.590393,245.331543 482.226685,242.784775 493.127960,240.618698 
	C505.212646,238.217514 517.121216,239.773438 529.769958,239.366394 
	C533.778320,240.303894 537.088501,240.858368 540.035339,241.351990 
	C538.791809,237.657242 537.988586,234.917679 536.948059,232.271439 
	C535.736938,229.191483 534.317993,226.193268 532.989197,223.159576 
M495.546051,272.069763 
	C496.990387,273.350586 498.385864,275.667908 499.887238,275.738678 
	C507.761169,276.109894 515.661865,275.912231 525.373535,275.912231 
	C523.703857,272.485535 522.699158,268.448822 521.566711,268.412689 
	C512.767456,268.131958 503.934082,268.458801 495.132660,268.967773 
	C492.258636,269.133972 493.508606,270.604370 495.546051,272.069763 
M647.061279,271.539703 
	C648.820618,270.782440 650.680969,270.180695 652.264038,269.152100 
	C652.632324,268.912750 652.423035,266.738983 651.840393,266.296082 
	C650.569153,265.329803 648.373901,263.949249 647.468506,264.435730 
	C644.706299,265.919891 644.414734,268.467163 647.061279,271.539703 
z"/>
<path fill="#4FBEF5" opacity="1.000000" stroke="none" 
	d="
M389.920105,304.403015 
	C396.095581,303.052887 397.333435,309.175507 400.861176,311.735504 
	C404.534424,314.401031 406.074615,313.583832 408.458710,310.806244 
	C412.731506,305.828094 417.202393,301.019958 421.848541,296.366516 
	C421.651154,299.551361 422.122894,303.208557 420.536133,305.315735 
	C417.731079,309.040833 420.464447,311.414215 421.751251,313.771973 
	C422.811798,315.715179 425.475037,316.783691 427.764130,318.490448 
	C426.649170,321.584290 429.039886,324.691071 434.576233,325.675903 
	C434.692047,325.982910 434.847107,326.282837 434.909332,326.600922 
	C435.634918,330.309357 431.737885,334.673462 436.504150,337.809998 
	C436.004456,338.203857 435.504761,338.597717 434.872192,338.793091 
	C434.390533,338.612610 434.041687,338.630646 433.692871,338.648651 
	C434.125275,338.769073 434.557678,338.889496 435.046967,339.440735 
	C435.355316,340.387421 435.606812,340.903290 435.784180,341.552612 
	C435.710083,341.686096 435.449341,341.844971 435.106445,341.646667 
	C434.456268,342.118408 434.148987,342.788483 433.764252,343.577881 
	C433.686768,343.697205 433.444611,343.846680 433.087830,343.621521 
	C429.480133,343.272430 426.229156,343.148468 422.951904,342.692047 
	C421.900116,342.284180 420.874573,342.208832 419.849060,342.133484 
	C419.851410,342.600922 419.853760,343.068359 419.856110,343.535828 
	C420.912750,343.349213 421.969360,343.162628 423.096130,343.305359 
	C425.502319,344.433716 427.838318,345.232788 430.088501,346.388702 
	C429.437042,347.495605 429.002533,348.415527 428.285278,348.969147 
	C422.007263,353.815002 413.802063,352.362152 407.029480,355.045410 
	C407.765259,353.625702 408.435944,352.581665 409.520782,351.593445 
	C414.995453,350.666199 420.056030,349.683136 425.116577,348.700073 
	C425.021118,348.303467 424.925629,347.906830 424.830139,347.510223 
	C420.191803,348.343994 415.553436,349.177795 411.044617,349.747101 
	C410.184418,348.012848 409.194702,346.543030 408.017609,344.794983 
	C406.942719,346.346954 406.295502,347.281403 405.946289,347.785614 
	C403.691864,345.442261 401.685455,342.810486 399.157013,340.852966 
	C395.069946,337.688721 391.879822,338.414368 390.613647,343.194397 
	C388.039398,352.912292 385.880707,362.757324 383.979095,372.632446 
	C381.014923,388.025116 384.448700,402.774597 390.096161,416.914276 
	C397.848541,436.324036 411.196442,452.201935 424.558594,467.875763 
	C431.987305,476.589691 440.634003,484.059052 451.820618,488.051605 
	C457.350708,490.025360 462.580658,492.840118 468.411163,495.485199 
	C468.149811,492.928680 467.991058,491.375702 467.832336,489.822723 
	C468.138763,489.759583 468.445190,489.696442 468.751617,489.633301 
	C469.336243,490.803619 469.920868,491.973969 470.600342,493.334167 
	C471.234467,492.332397 471.675781,491.635254 472.439758,491.087799 
	C476.925323,494.620178 481.787659,496.126190 486.937225,494.983124 
	C496.679138,492.820709 506.310181,490.158966 516.230957,487.889771 
	C516.509766,489.019958 516.152466,490.362732 516.642761,490.846680 
	C520.237915,494.395203 519.970032,495.962738 515.552246,497.965424 
	C503.604767,503.381714 491.364258,503.515350 478.562195,501.563354 
	C469.426910,500.170441 461.725739,504.162598 464.814484,515.755798 
	C465.452057,518.148926 465.944244,520.703674 467.167480,522.795593 
	C471.254089,529.784180 471.105927,539.057007 478.704529,544.148560 
	C480.352966,545.253113 481.815491,546.631104 483.411072,547.819458 
	C491.396179,553.766174 499.279816,559.859253 507.433685,565.565857 
	C512.880005,569.377502 515.739746,568.914001 520.864075,564.695312 
	C522.872314,563.041931 524.989258,561.520569 526.728699,560.190002 
	C530.121033,564.254761 533.154175,567.864197 536.153442,571.501465 
	C536.846191,572.341553 537.423157,573.277100 538.053406,574.168701 
	C532.904419,578.378052 528.018982,582.977234 522.531677,586.686035 
	C517.153381,590.321106 510.991547,590.862549 505.347168,586.988831 
	C498.130341,582.035950 490.890320,577.049866 484.148193,571.486816 
	C471.896545,561.377747 459.552246,551.305420 448.088593,540.337769 
	C436.311401,529.070129 425.559387,516.732788 414.325439,504.895111 
	C399.139221,488.892761 388.327423,469.970490 378.852814,450.334564 
	C371.095795,434.258392 366.240753,417.334198 364.660736,399.230347 
	C363.340302,384.101227 364.109711,369.228607 367.325592,354.750732 
	C371.146027,337.550964 377.805542,321.142639 388.597534,306.802124 
	C389.072571,306.170868 389.376465,305.410889 389.920105,304.403015 
M423.488373,319.561707 
	C423.488373,319.561707 423.446625,319.482208 423.488373,319.561707 
z"/>
<path fill="#4B73D5" opacity="1.000000" stroke="none" 
	d="
M538.379883,574.038330 
	C537.423157,573.277100 536.846191,572.341553 536.153442,571.501465 
	C533.154175,567.864197 530.121033,564.254761 526.728699,560.190002 
	C524.989258,561.520569 522.872314,563.041931 520.864075,564.695312 
	C515.739746,568.914001 512.880005,569.377502 507.433685,565.565857 
	C499.279816,559.859253 491.396179,553.766174 483.411072,547.819458 
	C481.815491,546.631104 480.352966,545.253113 478.704529,544.148560 
	C471.105927,539.057007 471.254089,529.784180 467.167480,522.795593 
	C465.944244,520.703674 465.452057,518.148926 464.814484,515.755798 
	C461.725739,504.162598 469.426910,500.170441 478.562195,501.563354 
	C491.364258,503.515350 503.604767,503.381714 515.552246,497.965424 
	C519.970032,495.962738 520.237915,494.395203 516.642761,490.846680 
	C516.152466,490.362732 516.509766,489.019958 516.398132,487.586426 
	C525.878601,483.374847 535.334961,479.360229 545.022156,476.014130 
	C553.901367,472.947144 563.029724,470.601746 572.012573,468.254242 
	C571.622253,469.281586 571.267700,469.993073 571.155701,470.217865 
	C576.200623,473.643524 581.328979,473.042603 587.067505,469.325897 
	C587.851257,472.366882 588.948730,474.641174 588.925842,476.904114 
	C588.853882,484.000488 587.865295,491.114655 588.180725,498.179565 
	C588.448730,504.183746 586.798523,508.649170 582.143005,512.418701 
	C575.794128,517.559387 570.375061,523.284485 573.951965,532.585449 
	C574.229858,533.308167 574.065674,534.239624 573.974060,535.059204 
	C573.492981,539.364075 575.495483,540.341431 579.237244,539.052551 
	C573.959167,544.103699 568.863220,549.364075 563.358093,554.154236 
	C556.135864,560.438477 548.598572,566.361206 541.173218,572.410583 
	C540.434570,573.012329 539.532532,573.413635 538.379883,574.038330 
z"/>
<path fill="#A358E8" opacity="1.000000" stroke="none" 
	d="
M579.570557,539.013428 
	C575.495483,540.341431 573.492981,539.364075 573.974060,535.059204 
	C574.065674,534.239624 574.229858,533.308167 573.951965,532.585449 
	C570.375061,523.284485 575.794128,517.559387 582.143005,512.418701 
	C586.798523,508.649170 588.448730,504.183746 588.180725,498.179565 
	C587.865295,491.114655 588.853882,484.000488 588.925842,476.904114 
	C588.948730,474.641174 587.851257,472.366882 587.067505,469.325897 
	C581.328979,473.042603 576.200623,473.643524 571.155701,470.217865 
	C571.267700,469.993073 571.622253,469.281586 572.231567,467.966125 
	C575.140015,466.586395 577.826416,465.907104 580.441956,465.018921 
	C595.894775,459.771515 609.735962,452.396027 617.560669,436.924225 
	C617.742432,439.100861 617.624573,441.148926 617.507019,443.197021 
	C629.010071,438.422272 643.463928,401.530548 640.439270,384.666321 
	C634.922852,384.344421 630.259277,385.306458 629.717896,392.040710 
	C628.873108,390.370361 628.111267,388.863953 627.253906,386.890869 
	C625.127563,376.150513 623.614807,365.735504 620.865356,355.657867 
	C619.294739,349.900909 615.183716,346.219055 608.681641,348.688202 
	C607.894531,348.987091 606.824097,348.653290 605.908997,348.483368 
	C599.114868,347.221741 595.074158,342.084076 590.794739,337.434448 
	C586.395020,332.653992 582.322266,327.572571 578.106445,322.622864 
	C577.562012,322.912628 577.017578,323.202423 576.473083,323.492188 
	C575.985596,328.934143 575.498047,334.376068 574.639038,339.906494 
	C573.306396,339.843018 572.102722,340.008759 571.421936,339.489288 
	C565.502258,334.971771 559.645264,330.369476 553.871277,325.667694 
	C553.302734,325.204712 553.413269,323.907776 553.556763,322.766144 
	C553.430847,316.619324 553.690918,311.001373 560.332764,308.377289 
	C559.208496,306.880707 558.536499,305.986084 557.864441,305.091492 
	C560.081970,303.193359 561.737915,303.280945 564.754700,304.668671 
	C568.851685,306.553253 573.918335,306.499084 578.601318,306.877441 
	C581.443909,307.107117 584.347046,306.578400 587.223755,306.404266 
	C587.700012,306.375458 588.438599,306.219940 588.620728,306.457153 
	C591.665222,310.421936 595.324707,308.669250 599.184265,308.158142 
	C601.622986,307.835175 604.471802,309.175476 606.865662,310.331024 
	C609.507324,311.606171 611.622375,313.854614 615.070801,312.248718 
	C615.975647,311.827301 618.179199,312.682098 618.908997,313.627869 
	C627.540283,324.813416 634.596252,336.850525 638.199829,350.677399 
	C638.947144,353.544891 639.772034,356.411804 640.858887,359.161316 
	C641.285339,360.240265 642.406860,361.592773 643.420776,361.800354 
	C649.131470,362.969666 651.948669,367.076569 654.423157,371.754242 
	C655.806213,374.368805 657.494202,376.822052 659.275635,379.724030 
	C659.861694,378.602875 660.211365,377.933838 660.796326,377.073059 
	C661.374817,378.057343 661.955811,379.219299 662.026550,380.411499 
	C663.667786,408.075989 656.227234,433.716125 643.524231,457.832733 
	C633.983582,475.945770 623.056946,493.322357 609.045166,508.453064 
	C599.488831,518.772583 589.628357,528.810486 579.570557,539.013428 
z"/>
<path fill="#FEFEFE" opacity="1.000000" stroke="none" 
	d="
M306.000000,755.001221 
	C295.169525,755.001221 284.830688,755.228882 274.514099,754.850830 
	C271.720123,754.748413 267.448303,753.491150 266.600677,751.559143 
	C265.354248,748.718262 264.964569,744.881653 267.890167,741.466187 
	C279.347504,728.090332 290.490753,714.443420 301.654022,700.818115 
	C311.664398,688.599976 321.505432,676.243164 331.506927,664.017639 
	C335.939606,658.599243 340.583649,653.353760 345.156097,648.001221 
	C336.274475,648.001221 327.636963,648.001221 318.999481,648.001221 
	C304.670105,648.001099 290.339355,647.889160 276.012146,648.066223 
	C271.467560,648.122314 269.558411,646.389709 269.979980,641.910645 
	C270.104309,640.589355 270.034546,639.245300 269.992004,637.913757 
	C269.888245,634.664917 271.312714,632.985718 274.686615,632.987793 
	C306.511169,633.007568 338.335846,633.051819 370.160095,632.953247 
	C376.218231,632.934448 377.727509,640.618896 374.941284,644.393799 
	C370.592377,650.285950 365.703461,655.779358 361.048187,661.445679 
	C351.942535,672.528809 342.859894,683.630920 333.730774,694.694763 
	C325.525299,704.639160 317.276062,714.547607 309.034698,724.462402 
	C304.991730,729.326294 300.922852,734.168640 296.010071,740.044006 
	C299.895233,739.609924 302.628510,739.048889 305.363708,739.039490 
	C326.690857,738.966370 348.018433,738.996704 369.345856,739.001160 
	C375.006409,739.002319 377.038330,741.033081 377.001221,746.614258 
	C376.962524,752.434082 374.555450,754.989502 368.982666,754.994080 
	C348.155121,755.011047 327.327545,755.001038 306.000000,755.001221 
z"/>
<path fill="#FEFEFE" opacity="1.000000" stroke="none" 
	d="
M462.783142,684.397217 
	C467.315338,691.991028 468.787659,700.026001 468.939972,708.309509 
	C469.025879,712.981384 466.659027,714.993286 461.931335,714.995850 
	C440.807312,715.007324 419.683289,715.000854 398.608154,715.000854 
	C396.455414,725.365234 404.940826,735.929016 412.382996,738.949524 
	C424.804199,743.990967 436.491028,741.790039 447.651855,734.911194 
	C450.357147,733.243774 453.663147,730.640686 456.208618,731.107605 
	C459.395599,731.692322 462.979095,734.500671 464.577087,737.362305 
	C465.289673,738.638367 462.072357,742.981812 459.777618,744.906372 
	C451.788239,751.606567 442.069000,754.893127 431.925415,755.813660 
	C419.868469,756.907837 407.986816,755.822815 396.953430,749.597839 
	C385.263519,743.002441 378.623077,732.987976 376.168762,720.228027 
	C373.740051,707.601257 375.482880,695.481445 382.874329,684.541138 
	C389.885284,674.164124 399.775726,668.333740 411.897797,666.006897 
	C425.296204,663.434937 438.235962,664.922974 449.857697,672.162537 
	C454.696350,675.176697 458.380402,680.044373 462.783142,684.397217 
M402.687256,702.998779 
	C417.431732,702.998779 432.176208,702.998779 446.914856,702.998779 
	C446.897491,690.806580 440.382446,677.500854 420.420990,678.894592 
	C406.927551,679.836731 399.035583,689.586487 398.300537,702.998779 
	C399.458160,702.998779 400.598938,702.998779 402.687256,702.998779 
z"/>
<path fill="#FEFEFE" opacity="1.000000" stroke="none" 
	d="
M739.224670,673.717407 
	C749.724304,681.370544 755.595947,691.026062 757.231384,703.851929 
	C758.276062,712.045654 757.805542,719.798096 754.901001,727.201355 
	C748.853943,742.614624 737.370850,751.975891 721.029419,754.963684 
	C708.289124,757.293030 695.652039,756.916382 683.852661,750.953613 
	C672.085083,745.007019 663.883789,736.174622 660.847534,722.680420 
	C658.404846,711.824219 658.976013,701.427795 663.315552,691.452332 
	C669.337097,677.610352 680.215759,669.424011 695.036194,666.437622 
	C710.567566,663.307922 725.338196,664.756653 739.224670,673.717407 
M703.507812,741.002686 
	C704.415833,741.328735 705.307678,741.880127 706.234314,741.946533 
	C717.493652,742.753479 729.248779,737.121948 732.779663,725.593872 
	C734.646240,719.499817 734.741028,712.747253 734.900208,706.273865 
	C735.125671,697.104980 731.837036,689.356079 724.209045,683.649841 
	C712.607910,674.971619 692.907104,678.679810 686.057922,691.571899 
	C681.791199,699.603149 681.275024,708.206055 682.124329,716.807922 
	C683.354309,729.264771 690.153931,738.768921 703.507812,741.002686 
z"/>
<path fill="#FEFEFE" opacity="1.000000" stroke="none" 
	d="
M567.010132,678.085693 
	C568.696716,683.587463 571.611450,688.670959 571.773804,693.840881 
	C572.354126,712.317505 572.011597,730.823425 571.991821,749.318298 
	C571.987427,753.430176 569.287842,755.548767 565.498840,754.965759 
	C562.689697,754.533569 559.775330,754.822449 556.942871,754.491211 
	C554.983459,754.262146 553.083679,753.523376 550.998840,752.970337 
	C550.998840,736.562927 551.084351,720.409729 550.962219,704.258179 
	C550.902710,696.389343 550.182068,688.650452 542.437256,683.915161 
	C533.346252,678.356934 524.472412,681.051758 516.258850,685.491638 
	C508.457764,689.708618 504.657257,696.730713 504.905792,706.063599 
	C505.273834,719.883240 505.001343,733.720032 505.000427,747.549500 
	C505.000031,753.691772 501.765381,756.181335 495.704987,754.970154 
	C493.957001,754.620789 492.033081,754.709351 490.261108,755.013062 
	C486.440186,755.667969 483.030182,753.122925 483.022797,749.093628 
	C482.975708,723.434204 483.018860,697.774597 482.975494,672.115173 
	C482.969604,668.618958 484.383484,666.878967 487.984558,666.980469 
	C491.147827,667.069641 494.316040,667.031433 497.481293,666.991150 
	C501.996735,666.933655 504.113586,669.156189 504.010345,673.636230 
	C503.957733,675.920959 504.001190,678.207825 504.001190,679.548035 
	C509.682373,675.852966 515.245544,671.220154 521.604004,668.347717 
	C530.160645,664.482056 539.382629,663.897583 548.756042,666.252258 
	C556.180481,668.117432 562.808533,670.848633 567.010132,678.085693 
z"/>
<path fill="#FEFEFE" opacity="1.000000" stroke="none" 
	d="
M593.998779,696.000000 
	C593.998779,687.842468 594.105591,680.182861 593.955322,672.528259 
	C593.875977,668.486877 595.544250,666.761047 599.564270,666.968811 
	C602.552673,667.123108 605.555786,667.022827 608.551880,666.993530 
	C613.087646,666.949158 615.120850,669.240906 615.014404,673.695862 
	C614.944397,676.629639 615.001160,679.566467 615.001160,681.544312 
	C620.685364,677.204529 626.192139,671.858459 632.700623,668.394592 
	C637.849609,665.654236 643.899109,663.613831 650.354980,665.924194 
	C658.434082,668.815430 659.588135,670.863953 656.588684,678.956665 
	C655.012329,683.209717 652.683716,685.410522 647.509521,685.202637 
	C641.921326,684.978088 636.150452,685.826965 630.673584,687.117126 
	C622.413513,689.062866 615.993286,697.364075 615.999146,707.162048 
	C616.007263,720.812439 616.014526,734.462830 615.994141,748.113220 
	C615.986938,752.926880 613.974976,754.978699 609.244629,754.994080 
	C592.829468,755.047607 593.924988,756.398010 593.987366,739.948181 
	C594.042236,725.465698 593.998779,710.982727 593.998779,696.000000 
z"/>
<path fill="#4B73D5" opacity="1.000000" stroke="none" 
	d="
M499.873474,605.185303 
	C511.002228,605.091492 522.143127,604.622803 533.257202,604.982178 
	C556.169434,605.723022 579.071411,606.825562 601.968201,607.968079 
	C607.160828,608.227112 612.305481,609.349365 617.492188,609.878784 
	C619.255615,610.058899 621.081055,609.645081 622.877075,609.489929 
	C625.203186,609.289001 627.528198,609.075378 629.853699,608.867188 
	C629.940552,609.366760 630.027405,609.866272 630.114258,610.365845 
	C626.861267,611.269165 623.659058,612.624023 620.346375,612.996704 
	C606.844788,614.515808 593.328491,615.994324 579.781067,616.990173 
	C566.303223,617.980896 552.787048,618.544800 539.277649,618.987915 
	C522.875061,619.526001 506.462860,619.813721 490.052521,620.038025 
	C486.643005,620.084595 483.223267,619.378784 479.395630,618.552307 
	C479.823242,616.643127 480.312714,614.650330 481.563812,613.853821 
	C487.284576,610.211670 492.083160,604.471741 499.873474,605.185303 
z"/>
<path fill="#4B73D5" opacity="1.000000" stroke="none" 
	d="
M435.991516,583.834595 
	C434.949310,584.247070 433.919861,584.980286 432.862915,585.022339 
	C422.776367,585.423706 412.686401,585.853210 402.594543,585.939758 
	C399.468262,585.966492 396.333191,584.969666 392.156250,584.265076 
	C395.400635,581.474304 397.785889,579.422546 401.019653,576.640869 
	C381.080414,573.282043 361.554199,577.115662 342.964844,570.887573 
	C364.146545,566.714722 385.560028,566.973083 407.896545,567.049500 
	C415.915741,567.086670 422.997711,567.086670 430.163757,567.086670 
	C430.163757,569.519165 430.054413,571.604919 430.189331,573.674683 
	C430.391876,576.782288 430.473480,579.956909 434.553589,580.919556 
	C435.224762,581.077942 435.521637,582.822876 435.991516,583.834595 
M425.596130,568.474304 
	C425.829803,568.533203 426.063446,568.592041 426.297119,568.650940 
	C426.146698,568.504822 425.996307,568.358643 425.596130,568.474304 
z"/>
<path fill="#4B73D5" opacity="1.000000" stroke="none" 
	d="
M593.123047,566.252930 
	C611.092834,566.516235 629.067261,566.612732 647.030640,567.108276 
	C657.041870,567.384460 667.040955,568.247803 677.029907,569.042542 
	C678.660583,569.172302 680.210388,570.319824 681.797546,570.996948 
	C681.740906,571.587891 681.684265,572.178894 681.627625,572.769897 
	C664.966553,573.924438 648.305420,575.078979 631.644348,576.233521 
	C631.423462,576.713257 631.202576,577.192993 630.981689,577.672791 
	C632.938293,579.402588 634.894897,581.132385 637.680359,583.594971 
	C624.304504,586.029541 611.605774,586.973572 598.081665,584.647583 
	C596.974487,583.674988 596.047852,582.944092 596.153625,582.422913 
	C597.029846,578.106873 598.096985,573.829651 599.190125,569.184753 
	C600.108032,569.067200 601.538818,568.883850 603.247986,568.664856 
	C599.659485,567.809998 596.391235,567.031494 593.123047,566.252930 
z"/>
<path fill="#4FBEF5" opacity="1.000000" stroke="none" 
	d="
M499.419983,605.128601 
	C492.083160,604.471741 487.284576,610.211670 481.563812,613.853821 
	C480.312714,614.650330 479.823242,616.643127 478.967896,618.461426 
	C447.413361,619.522522 416.286133,616.042908 385.409088,609.104492 
	C391.314667,608.743469 397.215942,608.244019 403.127014,608.060059 
	C409.120605,607.873535 415.127594,608.132019 421.122192,607.963196 
	C441.648102,607.385254 462.172272,606.738037 482.694519,606.041809 
	C488.123230,605.857666 493.542725,605.402527 499.419983,605.128601 
z"/>
<path fill="#4B73D5" opacity="1.000000" stroke="none" 
	d="
M650.244873,553.302734 
	C628.280151,560.194031 606.565552,562.383972 583.933655,554.601746 
	C585.230286,553.649414 586.233337,552.288513 587.331360,552.207031 
	C594.734924,551.657410 602.223755,551.869324 609.559937,550.893799 
	C619.686646,549.547302 629.803162,547.794434 639.741089,545.442444 
	C651.924866,542.558899 663.910400,538.842957 676.005798,535.576172 
	C677.834961,535.082092 679.794861,535.072144 681.980286,535.575378 
	C673.096985,544.350708 661.859863,548.751282 650.244873,553.302734 
z"/>
<path fill="#4FBEF5" opacity="1.000000" stroke="none" 
	d="
M592.646118,566.178162 
	C596.391235,567.031494 599.659485,567.809998 603.247986,568.664856 
	C601.538818,568.883850 600.108032,569.067200 599.190125,569.184753 
	C598.096985,573.829651 597.029846,578.106873 596.153625,582.422913 
	C596.047852,582.944092 596.974487,583.674988 597.644531,584.556641 
	C588.390503,583.470093 578.913147,582.146240 569.442505,580.775513 
	C568.840332,580.688354 567.966370,580.381348 567.766418,579.932617 
	C565.497803,574.840942 560.898743,575.318726 556.491577,574.689209 
	C553.603882,574.276794 552.667908,571.767517 555.573303,570.027649 
	C558.533752,568.254822 561.936279,566.362976 565.236877,566.180359 
	C574.188293,565.685242 583.188354,566.068481 592.646118,566.178162 
z"/>
<path fill="#4B73D5" opacity="1.000000" stroke="none" 
	d="
M434.050049,556.770508 
	C421.623322,560.687195 408.931549,561.058350 396.294922,558.565857 
	C387.813019,556.892822 379.556915,554.075317 371.326843,551.213440 
	C373.366425,548.426636 375.278931,546.196289 377.191437,543.965942 
	C387.339508,545.913086 397.435822,548.217163 407.651428,549.698547 
	C416.406921,550.968140 425.298950,551.295959 434.552277,552.445068 
	C434.665955,554.156738 434.358002,555.463623 434.050049,556.770508 
z"/>
<path fill="#4FBEF5" opacity="1.000000" stroke="none" 
	d="
M436.414337,583.882629 
	C435.521637,582.822876 435.224762,581.077942 434.553589,580.919556 
	C430.473480,579.956909 430.391876,576.782288 430.189331,573.674683 
	C430.054413,571.604919 430.163757,569.519165 430.163757,567.086670 
	C422.997711,567.086670 415.915741,567.086670 408.357788,567.043823 
	C408.876709,566.656006 409.870667,566.013794 410.866730,566.010498 
	C427.315552,565.956055 443.767731,565.817932 460.211121,566.126282 
	C463.569275,566.189209 466.981476,567.789185 470.181641,569.127930 
	C471.125153,569.522461 471.928467,571.484497 471.851013,572.666199 
	C471.796875,573.492310 470.224609,574.389160 469.163879,574.924255 
	C468.342865,575.338318 467.223419,575.109314 466.305664,575.391052 
	C457.440613,578.111938 448.595032,580.896484 439.728088,583.611206 
	C438.817230,583.890137 437.803284,583.832275 436.414337,583.882629 
z"/>
<path fill="#E397FF" opacity="1.000000" stroke="none" 
	d="
M465.381531,208.901215 
	C461.976532,208.901093 458.886658,208.509308 458.479004,212.940857 
	C458.404266,213.753235 457.240875,214.869354 456.365784,215.132233 
	C453.091217,216.115982 451.751648,218.118546 451.876892,221.511353 
	C451.905457,222.285156 450.629517,223.107132 449.954010,223.906952 
	C449.297241,222.938583 448.018982,221.917267 448.096161,221.011414 
	C448.364868,217.856857 447.518066,215.945648 444.105927,215.591324 
	C443.402802,215.518311 442.152618,214.750931 442.187531,214.409012 
	C442.973083,206.712189 436.903412,209.726486 431.614563,208.402008 
	C433.629944,207.147308 434.540649,206.117035 435.505463,206.063614 
	C438.847931,205.878479 440.582336,203.735275 443.067444,201.922821 
	C447.539490,198.661316 449.176086,195.114716 449.614014,190.208801 
	C449.626465,190.069168 450.817810,190.034760 451.987671,189.882568 
	C451.987671,191.623413 452.115509,193.243744 451.959442,194.836258 
	C451.686920,197.616959 452.247467,199.686157 455.495667,200.017853 
	C455.972046,200.066498 456.792694,200.188248 456.846924,200.418915 
	C457.964020,205.169891 462.091797,205.260971 465.642548,206.349426 
	C465.911469,206.431870 465.741364,207.946472 465.381531,208.901215 
M446.825958,210.392166 
	C448.433258,210.900696 451.142334,212.206268 451.453033,211.776825 
	C452.659729,210.108810 453.608093,207.884933 453.590210,205.877396 
	C453.582855,205.047058 450.532043,203.244095 449.501434,203.621292 
	C447.006989,204.534256 444.980652,206.514069 446.825958,210.392166 
z"/>
<path fill="#4FBEF5" opacity="1.000000" stroke="none" 
	d="
M376.987122,543.613525 
	C375.278931,546.196289 373.366425,548.426636 371.172974,550.868896 
	C360.036194,548.389526 351.082092,542.233337 342.121094,536.089722 
	C342.350952,535.431030 342.580780,534.772400 342.810638,534.113708 
	C349.649933,535.977356 356.485901,537.853394 363.329712,539.700378 
	C367.808167,540.909058 372.298004,542.075623 376.987122,543.613525 
z"/>
<path fill="#E397FF" opacity="1.000000" stroke="none" 
	d="
M379.868347,254.511612 
	C380.016754,256.926605 379.610504,258.498962 382.611359,259.620605 
	C385.174286,260.578552 385.980621,265.165039 390.101013,264.546814 
	C390.104889,265.509674 390.108765,266.472504 390.112640,267.435364 
	C385.461060,266.524353 384.792847,272.028107 381.266022,272.930359 
	C380.952179,273.010651 380.644989,273.117035 380.466583,273.171234 
	C379.987762,275.576935 379.522675,277.913666 379.057587,280.250397 
	C378.483887,280.346466 377.910217,280.442566 377.336517,280.538666 
	C376.171021,273.581268 373.628357,267.834106 365.722198,266.415771 
	C366.382324,265.560333 366.933472,264.218262 367.496429,264.213318 
	C373.450012,264.160980 375.034973,259.375153 376.775848,255.285324 
	C377.674622,253.173706 377.812195,252.292786 379.868347,254.511612 
M380.939484,267.130188 
	C381.363281,264.514618 380.529755,262.566711 377.640656,263.161560 
	C376.676544,263.360046 375.203064,265.892822 375.541260,266.681610 
	C376.454895,268.812469 378.320740,270.078918 380.939484,267.130188 
z"/>
<path fill="#E397FF" opacity="1.000000" stroke="none" 
	d="
M560.005432,203.316223 
	C559.786499,205.085846 559.583984,206.454895 559.381531,207.823959 
	C559.033875,207.871170 558.686279,207.918365 558.338684,207.965576 
	C557.898621,207.086411 557.178589,206.241959 557.064636,205.322372 
	C556.403259,199.986145 551.480347,198.790741 548.201843,196.007065 
	C547.507446,195.417511 546.740234,194.913651 546.006592,194.370316 
	C546.699341,193.913834 547.418945,193.492844 548.079163,192.993378 
	C549.408081,191.988052 550.728333,190.967789 551.999451,189.891525 
	C552.351929,189.593140 552.470459,188.754440 552.778809,188.707687 
	C557.403320,188.006454 557.563293,184.656143 556.798706,180.720657 
	C557.401550,180.716568 558.004395,180.712463 558.607178,180.708374 
	C559.248779,182.904800 559.890320,185.101227 560.528625,187.286560 
	C563.816284,189.664429 567.252136,192.149521 570.171265,194.260849 
	C567.003113,196.962494 563.512512,199.939072 560.005432,203.316223 
M560.141846,192.368912 
	C557.606750,191.860001 554.835083,191.299866 555.833801,195.401642 
	C556.071899,196.379410 557.881226,196.974594 558.967957,197.745773 
	C559.543518,196.138535 560.119080,194.531296 560.141846,192.368912 
z"/>
<path fill="#E397FF" opacity="1.000000" stroke="none" 
	d="
M620.865601,225.906525 
	C621.765137,226.069931 622.399719,226.018112 622.698486,226.309967 
	C624.904114,228.464981 627.042725,230.688522 628.681152,232.359009 
	C625.362732,236.173294 621.537720,240.569931 617.606628,245.088455 
	C616.116089,238.845154 614.049072,233.161163 605.523865,233.296112 
	C612.585327,231.065826 616.341919,225.837784 619.707581,220.080475 
	C619.953430,222.003799 620.199219,223.927109 620.865601,225.906525 
M615.929688,233.293350 
	C617.450623,233.833588 618.971497,234.373840 620.492371,234.914078 
	C620.428040,233.540634 620.914001,231.594009 620.194397,230.903046 
	C618.173523,228.962631 616.636414,230.059189 615.929688,233.293350 
z"/>
<path fill="#E397FF" opacity="1.000000" stroke="none" 
	d="
M500.782715,196.290375 
	C505.355011,199.574448 501.831451,202.242676 500.153473,204.148575 
	C497.908386,206.698532 495.804443,204.377274 494.021637,202.623123 
	C492.441925,201.068863 490.492310,199.298401 493.200684,197.447708 
	C495.260864,196.039948 497.229889,191.854813 500.782715,196.290375 
z"/>
<path fill="#E397FF" opacity="1.000000" stroke="none" 
	d="
M414.694214,230.247009 
	C420.333313,235.487076 413.566803,236.337051 412.215363,239.593292 
	C410.209320,237.676773 408.571289,236.111862 406.512115,234.144623 
	C409.324280,232.681519 409.396973,227.226425 414.694214,230.247009 
z"/>
<path fill="#FEFEFE" opacity="1.000000" stroke="none" 
	d="
M532.993408,223.558441 
	C534.317993,226.193268 535.736938,229.191483 536.948059,232.271439 
	C537.988586,234.917679 538.791809,237.657242 540.035339,241.351990 
	C537.088501,240.858368 533.778320,240.303894 530.232300,239.447083 
	C536.252930,238.824692 537.317505,236.355087 534.490479,228.939575 
	C533.874512,227.323929 533.489136,225.620377 532.993408,223.558441 
z"/>
<path fill="#E397FF" opacity="1.000000" stroke="none" 
	d="
M586.986572,220.761475 
	C585.931519,222.374771 584.876709,223.607971 583.042786,225.752029 
	C581.910889,222.667404 581.015564,220.227417 580.120239,217.787430 
	C580.731201,217.282608 581.342163,216.777786 581.953186,216.272964 
	C583.631042,217.642426 585.308960,219.011887 586.986572,220.761475 
z"/>
<path fill="#FEFEFE" opacity="1.000000" stroke="none" 
	d="
M556.819824,222.491302 
	C550.625488,222.109467 544.239380,221.388885 537.862671,220.593811 
	C537.624268,220.564087 537.476196,219.809814 537.460938,219.011383 
	C543.967102,219.799698 550.298340,220.969818 556.819824,222.491302 
z"/>
<path fill="#4FBEF5" opacity="1.000000" stroke="none" 
	d="
M434.453918,556.828979 
	C434.358002,555.463623 434.665955,554.156738 435.008484,552.512512 
	C437.370972,552.380920 439.698883,552.586670 442.026794,552.792419 
	C442.087341,553.590515 442.147888,554.388672 442.208435,555.186768 
	C439.758209,555.753662 437.308014,556.320618 434.453918,556.828979 
z"/>
<path fill="#A358E8" opacity="1.000000" stroke="none" 
	d="
M652.471375,327.147400 
	C650.528442,324.063538 652.608276,323.669281 654.634460,324.445984 
	C658.745911,326.022034 659.181396,323.860840 659.089233,320.310364 
	C661.354919,326.093994 660.543762,327.033691 652.471375,327.147400 
z"/>
<path fill="#FEFEFE" opacity="1.000000" stroke="none" 
	d="
M648.918579,287.522278 
	C646.885986,286.473053 644.925415,285.027710 643.385742,283.284973 
	C644.856689,282.934784 645.906677,282.882050 646.956665,282.829315 
	C647.421448,282.877502 647.886292,282.925690 648.694458,283.041809 
	C649.021973,284.448517 649.006226,285.787323 648.918579,287.522278 
z"/>
<path fill="#FEFEFE" opacity="1.000000" stroke="none" 
	d="
M537.385742,218.203247 
	C536.958069,218.178955 536.508423,217.883514 536.076050,217.255676 
	C536.516785,217.259552 536.940247,217.595825 537.385742,218.203247 
z"/>
<path fill="#000000" opacity="1.000000" stroke="none" 
	d="
M557.510376,305.037170 
	C558.536499,305.986084 559.208496,306.880707 560.332764,308.377289 
	C553.690918,311.001373 553.430847,316.619324 553.407715,322.425964 
	C552.312500,322.090790 551.623413,321.986359 551.130005,321.619110 
	C541.920471,314.764862 532.700256,307.924194 523.552979,300.987457 
	C515.159363,294.622223 509.814026,296.250000 502.509003,301.223328 
	C494.732086,306.518005 487.585266,312.728912 480.036682,318.370331 
	C466.366760,328.586578 452.602844,338.677063 438.560364,348.972809 
	C429.562256,355.850006 420.898102,362.595398 412.194611,369.289642 
	C408.072418,372.460266 406.193298,381.879791 409.321381,385.824402 
	C412.702911,390.088715 420.017609,393.623566 425.717163,388.865509 
	C428.293304,386.714935 431.198700,384.958801 433.980469,383.407776 
	C434.067596,384.555115 434.128937,385.318390 434.133789,386.540771 
	C434.052948,410.724609 434.012115,434.449371 434.047485,458.174011 
	C434.049500,459.514587 434.677429,460.854218 434.998962,462.607513 
	C434.983917,465.201355 434.983917,467.382019 434.983917,470.515594 
	C422.474121,457.951752 412.314423,445.240784 406.464569,429.746216 
	C401.849762,417.522797 398.597748,404.944733 398.856720,391.588898 
	C398.991577,384.633514 399.131805,377.755646 401.164307,371.116180 
	C402.794281,365.791595 405.009094,360.646057 406.964386,355.421051 
	C413.802063,352.362152 422.007263,353.815002 428.285278,348.969147 
	C429.002533,348.415527 429.437042,347.495605 430.392334,346.379578 
	C431.669556,345.291290 432.557098,344.568970 433.444611,343.846680 
	C433.444611,343.846680 433.686768,343.697205 433.957489,343.450378 
	C434.635254,342.750702 435.042297,342.297821 435.449341,341.844971 
	C435.449341,341.844971 435.710083,341.686096 436.058350,341.366211 
	C440.070740,334.439301 443.708252,327.817200 447.432922,321.244537 
	C447.894714,320.429688 448.703949,319.574677 449.548584,319.251221 
	C456.614105,316.545685 460.814270,310.760223 465.408447,304.932373 
	C465.189392,303.217987 465.138062,300.940277 464.027039,300.147217 
	C461.562073,298.387787 458.565613,297.373047 455.785858,296.054688 
	C470.149567,285.450378 486.771393,281.222107 504.932983,278.992737 
	C509.586029,279.711884 513.375305,280.512787 517.203918,281.013184 
	C519.320007,281.289764 521.502258,281.085663 523.654114,281.057800 
	C527.705383,281.005310 530.622131,282.373291 532.856750,286.168854 
	C534.465027,288.900543 537.492859,290.796448 539.887451,293.065155 
	C540.087769,293.344696 540.288086,293.624268 540.809326,294.301208 
	C541.689697,294.810883 542.249146,294.923187 542.808533,295.035461 
	C547.591125,298.351257 552.373657,301.667053 557.510376,305.037170 
z"/>
<path fill="#A358E8" opacity="1.000000" stroke="none" 
	d="
M465.095367,305.042725 
	C460.814270,310.760223 456.614105,316.545685 449.548584,319.251221 
	C448.703949,319.574677 447.894714,320.429688 447.432922,321.244537 
	C443.708252,327.817200 440.070740,334.439301 436.132446,341.232727 
	C435.606812,340.903290 435.355316,340.387421 435.051514,339.436188 
	C434.999176,339.000824 435.005066,338.991608 435.005066,338.991577 
	C435.504761,338.597717 436.004456,338.203857 436.504150,337.809998 
	C431.737885,334.673462 435.634918,330.309357 434.909332,326.600922 
	C434.847107,326.282837 434.692047,325.982910 434.576233,325.675903 
	C429.039886,324.691071 426.649170,321.584290 427.764130,318.490448 
	C425.475037,316.783691 422.811798,315.715179 421.751251,313.771973 
	C420.464447,311.414215 417.731079,309.040833 420.536133,305.315735 
	C422.122894,303.208557 421.651154,299.551361 422.152283,296.191437 
	C433.418030,283.505920 447.552277,275.574097 462.532959,268.959045 
	C463.423157,268.565948 465.493042,268.953918 465.885101,269.631592 
	C468.335083,273.865936 471.675079,274.691071 476.038788,273.083740 
	C476.703308,272.838959 477.600769,273.226715 478.753510,274.317017 
	C477.272034,274.995544 475.778687,275.649353 474.311035,276.356598 
	C464.140594,281.257477 453.980957,286.180908 443.806488,291.073395 
	C438.302460,293.720032 436.027374,298.043610 436.690186,304.583435 
	C436.161285,305.297394 435.985504,305.569336 435.757263,305.992706 
	C435.752808,306.070160 435.919739,306.073120 436.320251,305.990479 
	C436.851868,305.709534 437.024750,305.435272 437.072479,305.082092 
	C438.699890,305.775970 440.327332,306.469879 442.212006,307.273468 
	C442.481262,306.751678 442.974548,305.795746 444.200562,304.914276 
	C448.675354,305.195160 452.057404,305.089874 455.444763,302.496674 
	C459.335022,299.518463 462.328827,300.720642 465.095367,305.042725 
M453.394562,308.353882 
	C454.423523,309.018768 455.452484,309.683655 455.692566,309.838806 
	C457.381805,308.721069 458.908997,307.710571 461.415680,306.051941 
	C455.273010,306.576538 450.709991,306.966248 446.146973,307.355957 
	C446.140228,307.471283 446.133514,307.586639 446.126801,307.701996 
	C448.330719,307.998627 450.534637,308.295227 453.394562,308.353882 
M436.042603,334.837677 
	C436.566864,334.627380 437.098297,334.431030 437.597900,334.173035 
	C437.628693,334.157104 437.408539,333.655212 437.305176,333.379425 
	C436.740112,333.734680 436.175079,334.089966 436.042603,334.837677 
z"/>
<path fill="#A358E8" opacity="1.000000" stroke="none" 
	d="
M495.266907,271.828430 
	C493.508606,270.604370 492.258636,269.133972 495.132660,268.967773 
	C503.934082,268.458801 512.767456,268.131958 521.566711,268.412689 
	C522.699158,268.448822 523.703857,272.485535 525.373535,275.912231 
	C515.661865,275.912231 507.761169,276.109894 499.887238,275.738678 
	C498.385864,275.667908 496.990387,273.350586 495.266907,271.828430 
z"/>
<path fill="#A358E8" opacity="1.000000" stroke="none" 
	d="
M539.964417,292.686829 
	C537.492859,290.796448 534.465027,288.900543 532.856750,286.168854 
	C530.622131,282.373291 527.705383,281.005310 523.654114,281.057800 
	C521.502258,281.085663 519.320007,281.289764 517.203918,281.013184 
	C513.375305,280.512787 509.586029,279.711884 505.362061,278.943542 
	C505.068817,278.544983 505.199249,277.969727 505.318115,277.972107 
	C512.722168,278.120270 520.149658,278.022766 527.518005,278.634460 
	C531.020081,278.925140 534.409241,280.575928 538.267395,281.736267 
	C538.791809,284.861694 539.416565,288.585083 539.964417,292.686829 
z"/>
<path fill="#FEFEFE" opacity="1.000000" stroke="none" 
	d="
M465.408447,304.932373 
	C462.328827,300.720642 459.335022,299.518463 455.444763,302.496674 
	C452.057404,305.089874 448.675354,305.195160 444.500519,304.873962 
	C447.781952,301.973633 451.496155,299.188110 455.498108,296.228638 
	C458.565613,297.373047 461.562073,298.387787 464.027039,300.147217 
	C465.138062,300.940277 465.189392,303.217987 465.408447,304.932373 
z"/>
<path fill="#000000" opacity="1.000000" stroke="none" 
	d="
M646.971313,282.421112 
	C645.906677,282.882050 644.856689,282.934784 643.419067,282.916321 
	C643.031433,282.845062 643.002625,282.928192 642.924377,282.617737 
	C641.616882,281.201630 640.387634,280.095917 639.158447,278.990204 
	C637.177612,276.392181 635.196838,273.794189 632.588989,270.373749 
	C637.140503,269.952545 640.410400,268.723877 640.920105,273.628876 
	C640.971680,274.125702 641.869629,274.843811 642.451050,274.927063 
	C646.769714,275.545532 647.524719,278.342407 646.971313,282.421112 
z"/>
<path fill="#FEFEFE" opacity="1.000000" stroke="none" 
	d="
M646.787231,271.283020 
	C644.414734,268.467163 644.706299,265.919891 647.468506,264.435730 
	C648.373901,263.949249 650.569153,265.329803 651.840393,266.296082 
	C652.423035,266.738983 652.632324,268.912750 652.264038,269.152100 
	C650.680969,270.180695 648.820618,270.782440 646.787231,271.283020 
z"/>
<path fill="#FEFEFE" opacity="1.000000" stroke="none" 
	d="
M639.113770,279.368774 
	C640.387634,280.095917 641.616882,281.201630 642.967285,282.627563 
	C641.748596,281.881012 640.408813,280.814148 639.113770,279.368774 
z"/>
<path fill="#A358E8" opacity="1.000000" stroke="none" 
	d="
M542.708618,294.758575 
	C542.249146,294.923187 541.689697,294.810883 541.045410,294.414612 
	C541.509949,294.247681 542.059265,294.364685 542.708618,294.758575 
z"/>
<path fill="#4B73D5" opacity="1.000000" stroke="none" 
	d="
M407.029480,355.045410 
	C405.009094,360.646057 402.794281,365.791595 401.164307,371.116180 
	C399.131805,377.755646 398.991577,384.633514 398.856720,391.588898 
	C398.597748,404.944733 401.849762,417.522797 406.464569,429.746216 
	C412.314423,445.240784 422.474121,457.951752 434.983917,470.515594 
	C434.983917,467.382019 434.983917,465.201355 435.289124,462.505798 
	C436.280243,461.585266 436.966217,461.179718 437.334747,460.961823 
	C439.490845,464.270691 441.626038,467.547455 443.761230,470.824219 
	C444.311127,470.655792 444.861023,470.487335 445.410950,470.318909 
	C446.245544,466.486084 447.606995,462.677216 447.782562,458.814423 
	C448.006561,453.886353 446.946930,448.910217 447.015411,443.962769 
	C447.186554,431.594269 445.470001,419.254028 447.724640,406.826569 
	C449.146484,398.989624 447.255798,391.146149 443.683899,384.746307 
	C440.009430,385.263184 437.099823,385.672424 434.190247,386.081696 
	C434.128937,385.318390 434.067596,384.555115 434.233582,383.180725 
	C438.343140,378.862976 442.207245,375.137054 446.114136,371.456573 
	C448.608398,369.106934 451.294952,366.947113 453.650482,364.469452 
	C455.254822,362.781952 456.279449,360.549774 457.850464,358.822266 
	C459.394073,357.124878 461.300354,355.757294 463.386475,354.109009 
	C464.189850,353.826599 464.654236,353.680145 465.361328,353.804016 
	C467.303467,353.651367 469.251526,353.621582 470.656586,352.733093 
	C475.212952,349.851868 478.746338,350.860107 481.424652,355.263733 
	C482.648743,357.276367 485.276764,358.524475 487.435486,359.845825 
	C488.728821,360.637421 490.345673,360.900452 492.375854,361.591156 
	C490.019592,365.148651 488.075989,368.083099 486.119995,371.036224 
	C490.005646,372.347809 493.421753,373.500885 497.740723,374.958740 
	C495.206787,377.127930 493.304260,378.453094 491.785431,380.126465 
	C489.384399,382.771790 485.820526,385.394714 485.264648,388.480408 
	C483.824432,396.475342 482.932251,404.772827 483.471954,412.839050 
	C483.764282,417.207611 484.903748,422.918030 490.949036,425.262268 
	C497.241852,425.640625 503.216309,425.699402 509.608490,425.850555 
	C512.301636,425.864685 514.577087,425.786407 517.328857,425.787476 
	C523.886230,425.530701 529.967346,425.194611 536.412231,424.898132 
	C538.651245,423.969116 540.481445,422.895844 542.415955,422.065308 
	C543.927795,421.416168 545.983215,420.262299 547.040344,420.805481 
	C548.175537,421.388702 548.467163,423.677246 549.045776,425.251465 
	C549.305115,425.957062 549.366882,426.735291 549.518250,427.480591 
	C549.955994,427.792511 550.393677,428.104462 550.831421,428.416412 
	C551.495667,427.336029 552.225342,426.289917 552.812744,425.169250 
	C555.262329,420.495789 557.574524,415.746918 560.153564,411.147034 
	C560.859741,409.887512 562.188416,408.388580 563.456421,408.138062 
	C568.047302,407.230896 572.733887,406.807983 578.171082,406.099915 
	C578.171082,412.090790 578.104248,418.600891 578.191711,425.108948 
	C578.265015,430.559631 576.976746,436.729279 579.099487,441.266815 
	C581.519043,446.438660 583.923584,450.228149 578.575562,454.864960 
	C576.814087,454.953430 575.426086,454.722290 574.164001,455.021973 
	C562.806030,457.718597 551.433960,460.372284 540.155640,463.375244 
	C537.625122,464.048981 534.185791,465.505280 533.330017,467.520721 
	C530.227844,474.826569 523.997131,474.928497 517.889771,475.147644 
	C513.400208,475.308777 509.343140,476.091614 506.530975,479.703278 
	C502.238892,485.215546 496.300079,484.774597 490.340942,484.904877 
	C485.401520,485.012787 480.405792,485.213715 475.578827,486.130524 
	C474.171326,486.397858 473.257355,489.263519 472.117126,490.938110 
	C471.675781,491.635254 471.234467,492.332397 470.600342,493.334167 
	C469.920868,491.973969 469.336243,490.803619 468.751617,489.633301 
	C468.445190,489.696442 468.138763,489.759583 467.832336,489.822723 
	C467.991058,491.375702 468.149811,492.928680 468.411163,495.485199 
	C462.580658,492.840118 457.350708,490.025360 451.820618,488.051605 
	C440.634003,484.059052 431.987305,476.589691 424.558594,467.875763 
	C411.196442,452.201935 397.848541,436.324036 390.096161,416.914276 
	C384.448700,402.774597 381.014923,388.025116 383.979095,372.632446 
	C385.880707,362.757324 388.039398,352.912292 390.613647,343.194397 
	C391.879822,338.414368 395.069946,337.688721 399.157013,340.852966 
	C401.685455,342.810486 403.691864,345.442261 405.946289,347.785614 
	C406.295502,347.281403 406.942719,346.346954 408.017609,344.794983 
	C409.194702,346.543030 410.184418,348.012848 410.770660,349.793427 
	C409.996124,350.105560 409.625092,350.106934 409.139099,349.971985 
	C408.923096,349.780212 408.822052,349.724731 408.721008,349.669220 
	C408.846405,349.873383 408.971832,350.077576 409.146210,350.489258 
	C409.184448,350.979004 409.154968,351.259277 409.106659,351.537598 
	C408.435944,352.581665 407.765259,353.625702 407.029480,355.045410 
z"/>
<path fill="#000000" opacity="1.000000" stroke="none" 
	d="
M472.439819,491.087830 
	C473.257355,489.263519 474.171326,486.397858 475.578827,486.130524 
	C480.405792,485.213715 485.401520,485.012787 490.340942,484.904877 
	C496.300079,484.774597 502.238892,485.215546 506.530975,479.703278 
	C509.343140,476.091614 513.400208,475.308777 517.889771,475.147644 
	C523.997131,474.928497 530.227844,474.826569 533.330017,467.520721 
	C534.185791,465.505280 537.625122,464.048981 540.155640,463.375244 
	C551.433960,460.372284 562.806030,457.718597 574.164001,455.021973 
	C575.426086,454.722290 576.814087,454.953430 578.928162,455.049683 
	C586.723389,457.221100 591.948547,453.545654 591.969849,446.400452 
	C592.019897,429.579681 591.915833,412.758057 592.051941,395.938263 
	C592.081360,392.310150 592.860535,388.688171 593.291504,385.087341 
	C596.700317,386.949371 599.609375,388.649536 602.615784,390.155457 
	C607.485229,392.594543 611.669922,390.612885 615.068359,387.325867 
	C618.275940,384.223511 619.243591,380.207977 616.989502,375.536316 
	C616.386841,369.623810 611.337769,367.910065 607.881042,365.124023 
	C597.117554,356.448792 585.994263,348.219971 575.010498,339.818024 
	C575.498047,334.376068 575.985596,328.934143 576.473083,323.492188 
	C577.017578,323.202423 577.562012,322.912628 578.106445,322.622864 
	C582.322266,327.572571 586.395020,332.653992 590.794739,337.434448 
	C595.074158,342.084076 599.114868,347.221741 605.908997,348.483368 
	C606.824097,348.653290 607.894531,348.987091 608.681641,348.688202 
	C615.183716,346.219055 619.294739,349.900909 620.865356,355.657867 
	C623.614807,365.735504 625.127563,376.150513 627.137817,387.302856 
	C627.607117,405.151672 625.012512,421.496429 617.260986,436.795685 
	C609.735962,452.396027 595.894775,459.771515 580.441956,465.018921 
	C577.826416,465.907104 575.140015,466.586395 572.267334,467.650330 
	C563.029724,470.601746 553.901367,472.947144 545.022156,476.014130 
	C535.334961,479.360229 525.878601,483.374847 516.154480,487.401398 
	C506.310181,490.158966 496.679138,492.820709 486.937225,494.983124 
	C481.787659,496.126190 476.925323,494.620178 472.439819,491.087830 
z"/>
<path fill="#A358E8" opacity="1.000000" stroke="none" 
	d="
M409.254059,350.108276 
	C409.625092,350.106934 409.996124,350.105560 410.641113,350.057892 
	C415.553436,349.177795 420.191803,348.343994 424.830139,347.510223 
	C424.925629,347.906830 425.021118,348.303467 425.116577,348.700073 
	C420.056030,349.683136 414.995453,350.666199 409.520782,351.593445 
	C409.154968,351.259277 409.184448,350.979004 409.166046,350.428375 
	C409.136932,350.160004 409.254059,350.108276 409.254059,350.108276 
z"/>
<path fill="#A358E8" opacity="1.000000" stroke="none" 
	d="
M433.087830,343.621521 
	C432.557098,344.568970 431.669556,345.291290 430.478210,346.022705 
	C427.838318,345.232788 425.502319,344.433716 423.083710,343.317078 
	C423.001129,342.999481 422.978210,343.024536 422.978210,343.024536 
	C426.229156,343.148468 429.480133,343.272430 433.087830,343.621521 
z"/>
<path fill="#A358E8" opacity="1.000000" stroke="none" 
	d="
M423.013550,342.987762 
	C421.969360,343.162628 420.912750,343.349213 419.856110,343.535828 
	C419.853760,343.068359 419.851410,342.600922 419.849060,342.133484 
	C420.874573,342.208832 421.900116,342.284180 422.951904,342.692047 
	C422.978210,343.024536 423.001129,342.999481 423.013550,342.987762 
z"/>
<path fill="#A358E8" opacity="1.000000" stroke="none" 
	d="
M435.106415,341.646637 
	C435.042297,342.297821 434.635254,342.750702 434.034973,343.331055 
	C434.148987,342.788483 434.456268,342.118408 435.106415,341.646637 
z"/>
<path fill="#A358E8" opacity="1.000000" stroke="none" 
	d="
M434.994629,339.005371 
	C434.557678,338.889496 434.125275,338.769073 433.692871,338.648651 
	C434.041687,338.630646 434.390533,338.612610 434.872192,338.793091 
	C435.005066,338.991608 434.999176,339.000824 434.994629,339.005371 
z"/>
<path fill="#A358E8" opacity="1.000000" stroke="none" 
	d="
M423.467499,319.521973 
	C423.446625,319.482208 423.488373,319.561707 423.467499,319.521973 
z"/>
<path fill="#E397FF" opacity="1.000000" stroke="none" 
	d="
M574.639038,339.906494 
	C585.994263,348.219971 597.117554,356.448792 607.881042,365.124023 
	C611.337769,367.910065 616.386841,369.623810 616.701294,375.802185 
	C616.018066,379.011017 615.573120,381.581787 614.906921,385.430847 
	C614.066345,383.442169 613.882568,382.808563 613.554871,382.261139 
	C606.248047,370.056519 601.317139,368.049042 587.204041,371.257446 
	C586.158264,371.495178 584.684753,370.917999 583.721741,370.262024 
	C580.164917,367.839142 576.708557,365.264465 573.269165,362.674164 
	C556.579712,350.104950 540.040771,337.330627 523.179077,324.997314 
	C513.407959,317.850311 513.179321,318.164368 503.310944,324.911163 
	C502.488220,325.473663 501.620300,325.974426 500.825928,326.573486 
	C488.918304,335.553345 477.019470,344.544891 465.118591,353.533691 
	C464.654236,353.680145 464.189850,353.826599 463.092133,353.895203 
	C459.466949,352.224945 456.622314,349.794525 453.448669,349.236969 
	C448.713562,348.405121 443.746521,348.893402 438.878174,348.820038 
	C452.602844,338.677063 466.366760,328.586578 480.036682,318.370331 
	C487.585266,312.728912 494.732086,306.518005 502.509003,301.223328 
	C509.814026,296.250000 515.159363,294.622223 523.552979,300.987457 
	C532.700256,307.924194 541.920471,314.764862 551.130005,321.619110 
	C551.623413,321.986359 552.312500,322.090790 553.059570,322.657776 
	C553.413269,323.907776 553.302734,325.204712 553.871277,325.667694 
	C559.645264,330.369476 565.502258,334.971771 571.421936,339.489288 
	C572.102722,340.008759 573.306396,339.843018 574.639038,339.906494 
z"/>
<path fill="#4B73D5" opacity="1.000000" stroke="none" 
	d="
M617.560669,436.924225 
	C625.012512,421.496429 627.607117,405.151672 627.233215,387.769531 
	C628.111267,388.863953 628.873108,390.370361 629.717896,392.040710 
	C630.259277,385.306458 634.922852,384.344421 640.439270,384.666321 
	C643.463928,401.530548 629.010071,438.422272 617.507019,443.197021 
	C617.624573,441.148926 617.742432,439.100861 617.560669,436.924225 
z"/>
<path fill="#000000" opacity="1.000000" stroke="none" 
	d="
M402.213470,702.998779 
	C400.598938,702.998779 399.458160,702.998779 398.300537,702.998779 
	C399.035583,689.586487 406.927551,679.836731 420.420990,678.894592 
	C440.382446,677.500854 446.897491,690.806580 446.914856,702.998779 
	C432.176208,702.998779 417.431732,702.998779 402.213470,702.998779 
z"/>
<path fill="#000000" opacity="1.000000" stroke="none" 
	d="
M703.073730,741.000854 
	C690.153931,738.768921 683.354309,729.264771 682.124329,716.807922 
	C681.275024,708.206055 681.791199,699.603149 686.057922,691.571899 
	C692.907104,678.679810 712.607910,674.971619 724.209045,683.649841 
	C731.837036,689.356079 735.125671,697.104980 734.900208,706.273865 
	C734.741028,712.747253 734.646240,719.499817 732.779663,725.593872 
	C729.248779,737.121948 717.493652,742.753479 706.234314,741.946533 
	C705.307678,741.880127 704.415833,741.328735 703.073730,741.000854 
z"/>
<path fill="#4FBEF5" opacity="1.000000" stroke="none" 
	d="
M425.721008,568.343384 
	C425.996307,568.358643 426.146698,568.504822 426.297119,568.650940 
	C426.063446,568.592041 425.829803,568.533203 425.721008,568.343384 
z"/>
<path fill="#FEFEFE" opacity="1.000000" stroke="none" 
	d="
M446.593689,210.093567 
	C444.980652,206.514069 447.006989,204.534256 449.501434,203.621292 
	C450.532043,203.244095 453.582855,205.047058 453.590210,205.877396 
	C453.608093,207.884933 452.659729,210.108810 451.453033,211.776825 
	C451.142334,212.206268 448.433258,210.900696 446.593689,210.093567 
z"/>
<path fill="#FEFEFE" opacity="1.000000" stroke="none" 
	d="
M380.771912,267.484802 
	C378.320740,270.078918 376.454895,268.812469 375.541260,266.681610 
	C375.203064,265.892822 376.676544,263.360046 377.640656,263.161560 
	C380.529755,262.566711 381.363281,264.514618 380.771912,267.484802 
z"/>
<path fill="#FEFEFE" opacity="1.000000" stroke="none" 
	d="
M560.418213,192.646484 
	C560.119080,194.531296 559.543518,196.138535 558.967896,197.745758 
	C557.881226,196.974594 556.071899,196.379410 555.833801,195.401642 
	C554.835083,191.299866 557.606750,191.860001 560.418213,192.646484 
z"/>
<path fill="#FEFEFE" opacity="1.000000" stroke="none" 
	d="
M615.915039,232.899719 
	C616.636414,230.059189 618.173523,228.962631 620.194397,230.903046 
	C620.914001,231.594009 620.428040,233.540634 620.492432,234.914093 
	C618.971497,234.373840 617.450623,233.833588 615.915039,232.899719 
z"/>
<path fill="#4FBEF5" opacity="1.000000" stroke="none" 
	d="
M438.560364,348.972809 
	C443.746521,348.893402 448.713562,348.405121 453.448669,349.236969 
	C456.622314,349.794525 459.466949,352.224945 462.753143,354.031158 
	C461.300354,355.757294 459.394073,357.124878 457.850464,358.822266 
	C456.279449,360.549774 455.254822,362.781952 453.650482,364.469452 
	C451.294952,366.947113 448.608398,369.106934 446.114136,371.456573 
	C442.207245,375.137054 438.343140,378.862976 434.207794,382.796661 
	C431.198700,384.958801 428.293304,386.714935 425.717163,388.865509 
	C420.017609,393.623566 412.702911,390.088715 409.321381,385.824402 
	C406.193298,381.879791 408.072418,372.460266 412.194611,369.289642 
	C420.898102,362.595398 429.562256,355.850006 438.560364,348.972809 
z"/>
<path fill="#4FBEF5" opacity="1.000000" stroke="none" 
	d="
M434.133789,386.540771 
	C437.099823,385.672424 440.009430,385.263184 443.683899,384.746307 
	C447.255798,391.146149 449.146484,398.989624 447.724640,406.826569 
	C445.470001,419.254028 447.186554,431.594269 447.015411,443.962769 
	C446.946930,448.910217 448.006561,453.886353 447.782562,458.814423 
	C447.606995,462.677216 446.245544,466.486084 445.410950,470.318909 
	C444.861023,470.487335 444.311127,470.655792 443.761230,470.824219 
	C441.626038,467.547455 439.490845,464.270691 437.334747,460.961823 
	C436.966217,461.179718 436.280243,461.585266 435.304169,462.092590 
	C434.677429,460.854218 434.049500,459.514587 434.047485,458.174011 
	C434.012115,434.449371 434.052948,410.724609 434.133789,386.540771 
z"/>
<path fill="#E397FF" opacity="1.000000" stroke="none" 
	d="
M453.066559,308.472870 
	C450.534637,308.295227 448.330719,307.998627 446.126801,307.701996 
	C446.133514,307.586639 446.140228,307.471283 446.146973,307.355957 
	C450.709991,306.966248 455.273010,306.576538 461.415680,306.051941 
	C458.908997,307.710571 457.381805,308.721069 455.692566,309.838806 
	C455.452484,309.683655 454.423523,309.018768 453.066559,308.472870 
z"/>
<path fill="#4FBEF5" opacity="1.000000" stroke="none" 
	d="
M435.826294,334.641449 
	C436.175079,334.089966 436.740112,333.734680 437.305176,333.379425 
	C437.408539,333.655212 437.628693,334.157104 437.597900,334.173035 
	C437.098297,334.431030 436.566864,334.627380 435.826294,334.641449 
z"/>
<path fill="#E397FF" opacity="1.000000" stroke="none" 
	d="
M436.086700,306.076080 
	C435.919739,306.073120 435.752808,306.070160 435.794983,306.033936 
	C436.004150,306.000671 436.086700,306.076080 436.086700,306.076080 
z"/>
<path fill="#E397FF" opacity="1.000000" stroke="none" 
	d="
M435.966431,305.959442 
	C435.985504,305.569336 436.161285,305.297394 436.689331,305.017670 
	C436.922546,304.932892 436.999817,305.002899 437.036133,305.042480 
	C437.024750,305.435272 436.851868,305.709534 436.320251,305.990479 
	C436.086700,306.076080 436.004150,306.000671 435.966431,305.959442 
z"/>
<path fill="#A358E8" opacity="1.000000" stroke="none" 
	d="
M465.361328,353.804016 
	C477.019470,344.544891 488.918304,335.553345 500.825928,326.573486 
	C501.620300,325.974426 502.488220,325.473663 503.310944,324.911163 
	C513.179321,318.164368 513.407959,317.850311 523.179077,324.997314 
	C540.040771,337.330627 556.579712,350.104950 573.269165,362.674164 
	C576.708557,365.264465 580.164917,367.839142 583.721741,370.262024 
	C584.684753,370.917999 586.158264,371.495178 587.204041,371.257446 
	C601.317139,368.049042 606.248047,370.056519 613.554871,382.261139 
	C613.882568,382.808563 614.066345,383.442169 614.906921,385.430847 
	C615.573120,381.581787 616.018066,379.011017 616.751221,376.174377 
	C619.243591,380.207977 618.275940,384.223511 615.068359,387.325867 
	C611.669922,390.612885 607.485229,392.594543 602.615784,390.155457 
	C599.609375,388.649536 596.700317,386.949371 593.291504,385.087341 
	C592.860535,388.688171 592.081360,392.310150 592.051941,395.938263 
	C591.915833,412.758057 592.019897,429.579681 591.969849,446.400452 
	C591.948547,453.545654 586.723389,457.221100 579.359985,454.976257 
	C583.923584,450.228149 581.519043,446.438660 579.099487,441.266815 
	C576.976746,436.729279 578.265015,430.559631 578.191711,425.108948 
	C578.104248,418.600891 578.171082,412.090790 578.171082,406.099915 
	C572.733887,406.807983 568.047302,407.230896 563.456421,408.138062 
	C562.188416,408.388580 560.859741,409.887512 560.153564,411.147034 
	C557.574524,415.746918 555.262329,420.495789 552.812744,425.169250 
	C552.225342,426.289917 551.495667,427.336029 550.831421,428.416412 
	C550.393677,428.104462 549.955994,427.792511 549.518250,427.480591 
	C549.366882,426.735291 549.305115,425.957062 549.045776,425.251465 
	C548.467163,423.677246 548.175537,421.388702 547.040344,420.805481 
	C545.983215,420.262299 543.927795,421.416168 542.415955,422.065308 
	C540.481445,422.895844 538.651245,423.969116 536.302979,424.456421 
	C535.835266,419.833710 536.069214,415.672638 535.714600,411.562378 
	C535.599854,410.231873 534.014099,408.021332 532.977112,407.947113 
	C527.770630,407.574463 522.523071,407.776276 516.852539,407.776276 
	C516.852539,414.187744 516.852539,419.947937 516.852539,425.708160 
	C514.577087,425.786407 512.301636,425.864685 509.588287,425.399689 
	C509.150360,419.310272 509.150360,413.764099 509.150360,407.781097 
	C505.518982,407.781097 502.441559,407.756348 499.364655,407.785675 
	C489.554871,407.879242 490.988678,406.550659 490.872803,416.053558 
	C490.836639,419.017151 490.713806,421.979675 490.630676,424.942688 
	C484.903748,422.918030 483.764282,417.207611 483.471954,412.839050 
	C482.932251,404.772827 483.824432,396.475342 485.264648,388.480408 
	C485.820526,385.394714 489.384399,382.771790 491.785431,380.126465 
	C493.304260,378.453094 495.206787,377.127930 497.740723,374.958740 
	C493.421753,373.500885 490.005646,372.347809 486.119995,371.036224 
	C488.075989,368.083099 490.019592,365.148651 492.375854,361.591156 
	C490.345673,360.900452 488.728821,360.637421 487.435486,359.845825 
	C485.276764,358.524475 482.648743,357.276367 481.424652,355.263733 
	C478.746338,350.860107 475.212952,349.851868 470.656586,352.733093 
	C469.251526,353.621582 467.303467,353.651367 465.361328,353.804016 
M535.339111,396.417175 
	C535.339111,392.027863 535.339111,387.638550 535.339111,382.943756 
	C529.548035,382.943756 524.604858,382.806854 519.681396,383.057953 
	C518.682983,383.108887 516.977234,384.582825 516.930298,385.471130 
	C516.663452,390.520935 516.801025,395.592102 516.801025,401.276276 
	C522.438293,401.276276 527.367737,401.205444 532.293884,401.302979 
	C535.221497,401.360931 535.443359,399.566315 535.339111,396.417175 
M508.915771,383.840485 
	C503.095978,383.403259 497.276184,382.966034 491.167664,382.507080 
	C491.167664,389.249939 491.167664,394.965515 491.167664,400.889832 
	C497.233368,400.889832 502.949677,400.889832 509.230377,400.889832 
	C509.230377,395.279388 509.230377,390.012268 508.915771,383.840485 
z"/>
<path fill="#FEFEFE" opacity="1.000000" stroke="none" 
	d="
M517.328857,425.787476 
	C516.852539,419.947937 516.852539,414.187744 516.852539,407.776276 
	C522.523071,407.776276 527.770630,407.574463 532.977112,407.947113 
	C534.014099,408.021332 535.599854,410.231873 535.714600,411.562378 
	C536.069214,415.672638 535.835266,419.833710 535.939087,424.416779 
	C529.967346,425.194611 523.886230,425.530701 517.328857,425.787476 
z"/>
<path fill="#FEFEFE" opacity="1.000000" stroke="none" 
	d="
M490.949036,425.262268 
	C490.713806,421.979675 490.836639,419.017151 490.872803,416.053558 
	C490.988678,406.550659 489.554871,407.879242 499.364655,407.785675 
	C502.441559,407.756348 505.518982,407.781097 509.150360,407.781097 
	C509.150360,413.764099 509.150360,419.310272 509.170563,425.307312 
	C503.216309,425.699402 497.241852,425.640625 490.949036,425.262268 
z"/>
<path fill="#4FBEF5" opacity="1.000000" stroke="none" 
	d="
M409.117096,350.220886 
	C408.971832,350.077576 408.846405,349.873383 408.721008,349.669220 
	C408.822052,349.724731 408.923096,349.780212 409.139099,349.971985 
	C409.254059,350.108276 409.136932,350.160004 409.117096,350.220886 
z"/>
<path fill="#FEFEFE" opacity="1.000000" stroke="none" 
	d="
M535.338745,396.905792 
	C535.443359,399.566315 535.221497,401.360931 532.293884,401.302979 
	C527.367737,401.205444 522.438293,401.276276 516.801025,401.276276 
	C516.801025,395.592102 516.663452,390.520935 516.930298,385.471130 
	C516.977234,384.582825 518.682983,383.108887 519.681396,383.057953 
	C524.604858,382.806854 529.548035,382.943756 535.339111,382.943756 
	C535.339111,387.638550 535.339111,392.027863 535.338745,396.905792 
z"/>
<path fill="#FEFEFE" opacity="1.000000" stroke="none" 
	d="
M509.073059,384.292786 
	C509.230377,390.012268 509.230377,395.279388 509.230377,400.889832 
	C502.949677,400.889832 497.233368,400.889832 491.167664,400.889832 
	C491.167664,394.965515 491.167664,389.249939 491.167664,382.507080 
	C497.276184,382.966034 503.095978,383.403259 509.073059,384.292786 
z"/>
</svg>